<svg width="44" height="25" viewBox="0 0 44 25" fill="none" xmlns="http://www.w3.org/2000/svg">
<rect width="44" height="24" rx="12" fill="white"/>
<g filter="url(#filter0_d_90_809)">
<circle cx="12" cy="12" r="11" fill="#E90000"/>
</g>
<path d="M15 12C15 10.82 14.32 9.80667 13.3333 9.31333V10.7867L14.9667 12.42C14.9867 12.2867 15 12.1467 15 12ZM16.6667 12C16.6667 12.6267 16.5333 13.2133 16.3067 13.76L17.3133 14.7667C17.7533 13.94 18 13 18 12C18 9.14667 16.0067 6.76 13.3333 6.15333V7.52667C15.26 8.1 16.6667 9.88667 16.6667 12ZM6.84667 6L6 6.84667L9.15333 10H6V14H8.66667L12 17.3333V12.8467L14.8333 15.68C14.3867 16.0267 13.8867 16.3 13.3333 16.4667V17.84C14.2533 17.6333 15.0867 17.2067 15.7933 16.6333L17.1533 18L18 17.1533L12 11.1533L6.84667 6ZM12 6.66667L10.6067 8.06L12 9.45333V6.66667Z" fill="white"/>
<defs>
<filter id="filter0_d_90_809" x="0" y="1" width="24" height="24" filterUnits="userSpaceOnUse" color-interpolation-filters="sRGB">
<feFlood flood-opacity="0" result="BackgroundImageFix"/>
<feColorMatrix in="SourceAlpha" type="matrix" values="0 0 0 0 0 0 0 0 0 0 0 0 0 0 0 0 0 0 127 0" result="hardAlpha"/>
<feOffset dy="1"/>
<feGaussianBlur stdDeviation="0.5"/>
<feComposite in2="hardAlpha" operator="out"/>
<feColorMatrix type="matrix" values="0 0 0 0 0.270833 0 0 0 0 0.00789928 0 0 0 0 0.00789928 0 0 0 0.3 0"/>
<feBlend mode="normal" in2="BackgroundImageFix" result="effect1_dropShadow_90_809"/>
<feBlend mode="normal" in="SourceGraphic" in2="effect1_dropShadow_90_809" result="shape"/>
</filter>
</defs>
</svg>
